<svg width="40" height="44" viewBox="0 0 70 74" fill="none" xmlns="http://www.w3.org/2000/svg">
<g filter="url(#filter0_d_694_1154)">
<path d="M4 14C4 7.37258 9.37258 2 16 2H54C60.6274 2 66 7.37258 66 14V56C66 62.6274 60.6274 68 54 68H16C9.37258 68 4 62.6274 4 56V14Z" fill="url(#paint0_linear_694_1154)"/>
</g>
<g filter="url(#filter1_d_694_1154)">
<path d="M35 13V8" stroke="#FFDB5A" stroke-width="2" stroke-linecap="round" stroke-linejoin="round" shape-rendering="crispEdges"/>
</g>
<g filter="url(#filter2_d_694_1154)">
<path d="M43 14.3301L45.5 10" stroke="#FFDB5A" stroke-width="2" stroke-linecap="round" stroke-linejoin="round" shape-rendering="crispEdges"/>
</g>
<g filter="url(#filter3_d_694_1154)">
<path d="M48.9995 20.41L52.6562 17" stroke="#FFDB5A" stroke-width="2" stroke-linecap="round" stroke-linejoin="round" shape-rendering="crispEdges"/>
</g>
<g filter="url(#filter4_d_694_1154)">
<path d="M21.6568 20.41L18 17" stroke="#FFDB5A" stroke-width="2" stroke-linecap="round" stroke-linejoin="round" shape-rendering="crispEdges"/>
</g>
<g filter="url(#filter5_d_694_1154)">
<path d="M27.5 14.3301L25 10" stroke="#FFDB5A" stroke-width="2" stroke-linecap="round" stroke-linejoin="round" shape-rendering="crispEdges"/>
</g>
<path fill-rule="evenodd" clip-rule="evenodd" d="M34.875 30.3754C35.3843 29.9398 35.992 29.5939 36.6628 29.3577C37.3335 29.1215 38.0537 28.9999 38.7812 29H51.2812C52.4422 29 53.4531 29.5292 53.9906 30.3138C54.1 30.4723 54.1406 30.6544 54.1406 30.8378V33.8427L55.1875 53.2331C55.1875 54.1016 54.776 54.9345 54.0434 55.5486C53.3108 56.1628 52.3173 56.5078 51.2812 56.5078H18.4688C17.4327 56.5078 16.4392 56.1628 15.7066 55.5486C14.9741 54.9345 14.5625 54.1016 14.5625 53.2331L15.6094 33.8427V30.8378C15.6094 30.6544 15.65 30.4723 15.7594 30.3138C16.0333 29.9145 16.428 29.5827 16.9037 29.352C17.3794 29.1214 17.9192 28.9999 18.4688 29H30.9688C32.5 29 33.8828 29.5266 34.875 30.3754Z" fill="#B4ACBC"/>
<path d="M37.5813 59.127H54.4063C55.7031 59.127 56.7516 58.2388 56.7516 57.1556V55.7736C56.7516 54.6903 55.7047 52.5762 54.4063 52.5762H15.3438C14.0484 52.5775 13 54.6917 13 55.7749V57.1687C13 58.2519 14.0469 59.127 15.3453 59.127H32.1688C32.443 59.5252 32.8375 59.8559 33.3126 60.0858C33.7876 60.3157 34.3265 60.4367 34.875 60.4367C35.4235 60.4367 35.9624 60.3157 36.4374 60.0858C36.9125 59.8559 37.307 59.5252 37.5813 59.127Z" fill="#850507"/>
<path fill-rule="evenodd" clip-rule="evenodd" d="M15.3453 32.9297H31.75V34.2396H38V32.9297H54.4047C55.7016 32.9297 56.75 33.8047 56.75 34.888V55.8463C56.75 56.9296 55.7031 57.8177 54.4047 57.8177H37.5813C37.307 58.2159 36.9125 58.5466 36.4374 58.7765C35.9624 59.0064 35.4235 59.1275 34.875 59.1275C34.3265 59.1275 33.7876 59.0064 33.3126 58.7765C32.8375 58.5466 32.443 58.2159 32.1687 57.8177H15.3438C14.0484 57.8177 13 56.9427 13 55.8594V34.888C13 33.8047 14.0469 32.9297 15.3453 32.9297ZM37.2188 55.8528C37.2188 56.374 36.9718 56.8737 36.5323 57.2422C36.0927 57.6107 35.4966 57.8177 34.875 57.8177C34.2534 57.8177 33.6573 57.6107 33.2177 57.2422C32.7782 56.8737 32.5312 56.374 32.5312 55.8528C32.5312 55.3317 32.7782 54.832 33.2177 54.4635C33.6573 54.095 34.2534 53.888 34.875 53.888C35.4966 53.888 36.0927 54.095 36.5323 54.4635C36.9718 54.832 37.2188 55.3317 37.2188 55.8528Z" fill="#CE4545"/>
<path d="M30.1875 30.3096H18.9422C18.5564 30.3096 18.1765 30.3895 17.8363 30.5421C17.4962 30.6948 17.2062 30.9154 16.9922 31.1846L14.5625 34.2393V53.2327C14.5625 53.7538 14.8094 54.2536 15.249 54.6221C15.6885 54.9906 16.2846 55.1976 16.9062 55.1976H52.8438C53.4654 55.1976 54.0615 54.9906 54.501 54.6221C54.9406 54.2536 55.1875 53.7538 55.1875 53.2327V34.2393L52.7578 31.1846C52.5438 30.9154 52.2538 30.6948 51.9137 30.5421C51.5735 30.3895 51.1936 30.3096 50.8078 30.3096H39.5625V34.2393H30.1875V30.3096Z" fill="#B4ACBC"/>
<path d="M18.4688 30.3096H30.9688C32.0048 30.3096 32.9983 30.6546 33.7309 31.2687C34.4634 31.8829 34.875 32.7158 34.875 33.5843V55.1976L34.1766 54.0265C33.917 53.591 33.5178 53.2248 33.0238 52.9689C32.5297 52.713 31.9604 52.5776 31.3797 52.5778H18.4688C18.0543 52.5778 17.6569 52.4398 17.3639 52.1941C17.0709 51.9485 16.9062 51.6153 16.9062 51.2679V31.6195C16.9062 31.2721 17.0709 30.9389 17.3639 30.6932C17.6569 30.4476 18.0543 30.3096 18.4688 30.3096ZM38.7812 30.3096H51.2812C51.6957 30.3096 52.0931 30.4476 52.3861 30.6932C52.6791 30.9389 52.8438 31.2721 52.8438 31.6195V51.2679C52.8438 51.6153 52.6791 51.9485 52.3861 52.1941C52.0931 52.4398 51.6957 52.5778 51.2812 52.5778H38.3687C37.8181 52.5778 37.2772 52.6998 36.8009 52.9314C36.3245 53.1631 35.9297 53.4961 35.6562 53.8968V31.6195C36.3687 30.8244 37.5031 30.3096 38.7812 30.3096Z" fill="#FEF4DC"/>
<path d="M32.996 18.6108L32.9959 18.6109L30.3289 24.2545L24.3805 25.1552C24.3803 25.1553 24.3802 25.1553 24.38 25.1553C24.3799 25.1553 24.3798 25.1553 24.3797 25.1553C23.857 25.2342 23.3707 25.4636 22.9746 25.8118L22.9746 25.8118C22.5787 26.1598 22.289 26.6121 22.1326 27.1145C21.9762 27.6166 21.9579 28.1532 22.0791 28.665C22.2003 29.1765 22.4574 29.6476 22.8266 30.0229C22.8266 30.0229 22.8266 30.0229 22.8266 30.0229C22.8269 30.0232 22.8272 30.0234 22.8274 30.0237L27.155 34.4292L26.1322 40.6565C26.1322 40.6568 26.1321 40.6571 26.1321 40.6573C26.0462 41.1763 26.101 41.7106 26.2918 42.201C26.4828 42.6919 26.8041 43.1231 27.2248 43.4418C27.6459 43.7609 28.1488 43.9536 28.6769 43.9926C29.2046 44.0316 29.73 43.9153 30.1927 43.6602C30.1931 43.66 30.1936 43.6597 30.194 43.6595L35.5001 40.7467L40.81 43.6602C40.8102 43.6604 40.8105 43.6605 40.8107 43.6607C40.8108 43.6607 40.8108 43.6607 40.8108 43.6607C41.2738 43.9151 41.7994 44.0308 42.3271 43.991L42.2519 42.9938L42.3271 43.991C42.8549 43.9512 43.3574 43.758 43.778 43.4386C44.1982 43.1194 44.5189 42.688 44.7094 42.1971C44.8996 41.7068 44.954 41.1727 44.8678 40.6541C44.8677 40.6537 44.8677 40.6534 44.8676 40.653L43.845 34.4266L48.1732 30.0231L48.1742 30.022C49.7587 28.4052 48.9515 25.5062 46.6199 25.1553C46.6196 25.1553 46.6194 25.1552 46.6191 25.1552L40.671 24.2545L38.004 18.6109L38.004 18.6108C37.7792 18.1353 37.4285 17.7288 36.9863 17.4418C36.5436 17.1546 36.0286 17 35.5 17C34.9713 17 34.4564 17.1546 34.0137 17.4418C33.5715 17.7288 33.2208 18.1353 32.996 18.6108Z" fill="url(#paint1_linear_694_1154)" stroke="#4FB9F1" stroke-width="2"/>
<path d="M35 62.167L33.131 63.038C32.8617 63.1636 32.6058 63.1394 32.3635 62.9654C32.1212 62.7917 32 62.5488 32 62.2368V56.0423C32 55.7928 32.0772 55.5846 32.2315 55.4178C32.3858 55.251 32.578 55.1674 32.808 55.167H37.1925C37.4225 55.167 37.6147 55.2506 37.769 55.4178C37.9233 55.585 38.0003 55.7932 38 56.0423V62.2368C38 62.5488 37.8788 62.7917 37.6365 62.9654C37.3942 63.1394 37.1383 63.1636 36.869 63.038L35 62.167Z" fill="#FF5C52"/>
<path d="M35 62.167L33.131 63.038C32.8617 63.1636 32.6058 63.1394 32.3635 62.9654C32.1212 62.7917 32 62.5488 32 62.2368V56.0423C32 55.7928 32.0772 55.5846 32.2315 55.4178C32.3858 55.251 32.578 55.1674 32.808 55.167H37.1925C37.4225 55.167 37.6147 55.2506 37.769 55.4178C37.9233 55.585 38.0003 55.7932 38 56.0423V62.2368C38 62.5488 37.8788 62.7917 37.6365 62.9654C37.3942 63.1394 37.1383 63.1636 36.869 63.038L35 62.167Z" fill="black" fill-opacity="0.2"/>
<path d="M59.5003 25.167H57.8337V23.5003C57.8337 23.2793 57.7459 23.0674 57.5896 22.9111C57.4333 22.7548 57.2213 22.667 57.0003 22.667C56.7793 22.667 56.5674 22.7548 56.4111 22.9111C56.2548 23.0674 56.167 23.2793 56.167 23.5003L56.1966 25.167H54.5003C54.2793 25.167 54.0674 25.2548 53.9111 25.4111C53.7548 25.5674 53.667 25.7793 53.667 26.0003C53.667 26.2213 53.7548 26.4333 53.9111 26.5896C54.0674 26.7459 54.2793 26.8337 54.5003 26.8337L56.1966 26.8041L56.167 28.5003C56.167 28.7213 56.2548 28.9333 56.4111 29.0896C56.5674 29.2459 56.7793 29.3337 57.0003 29.3337C57.2213 29.3337 57.4333 29.2459 57.5896 29.0896C57.7459 28.9333 57.8337 28.7213 57.8337 28.5003V26.8041L59.5003 26.8337C59.7213 26.8337 59.9333 26.7459 60.0896 26.5896C60.2459 26.4333 60.3337 26.2213 60.3337 26.0003C60.3337 25.7793 60.2459 25.5674 60.0896 25.4111C59.9333 25.2548 59.7213 25.167 59.5003 25.167Z" fill="white"/>
<path d="M15.5003 25.167H13.8337V23.5003C13.8337 23.2793 13.7459 23.0674 13.5896 22.9111C13.4333 22.7548 13.2213 22.667 13.0003 22.667C12.7793 22.667 12.5674 22.7548 12.4111 22.9111C12.2548 23.0674 12.167 23.2793 12.167 23.5003L12.1966 25.167H10.5003C10.2793 25.167 10.0674 25.2548 9.91107 25.4111C9.75479 25.5674 9.66699 25.7793 9.66699 26.0003C9.66699 26.2213 9.75479 26.4333 9.91107 26.5896C10.0674 26.7459 10.2793 26.8337 10.5003 26.8337L12.1966 26.8041L12.167 28.5003C12.167 28.7213 12.2548 28.9333 12.4111 29.0896C12.5674 29.2459 12.7793 29.3337 13.0003 29.3337C13.2213 29.3337 13.4333 29.2459 13.5896 29.0896C13.7459 28.9333 13.8337 28.7213 13.8337 28.5003V26.8041L15.5003 26.8337C15.7213 26.8337 15.9333 26.7459 16.0896 26.5896C16.2459 26.4333 16.3337 26.2213 16.3337 26.0003C16.3337 25.7793 16.2459 25.5674 16.0896 25.4111C15.9333 25.2548 15.7213 25.167 15.5003 25.167Z" fill="white"/>
<defs>
<filter id="filter0_d_694_1154" x="0" y="0" width="70" height="74" filterUnits="userSpaceOnUse" color-interpolation-filters="sRGB">
<feFlood flood-opacity="0" result="BackgroundImageFix"/>
<feColorMatrix in="SourceAlpha" type="matrix" values="0 0 0 0 0 0 0 0 0 0 0 0 0 0 0 0 0 0 127 0" result="hardAlpha"/>
<feOffset dy="2"/>
<feGaussianBlur stdDeviation="2"/>
<feComposite in2="hardAlpha" operator="out"/>
<feColorMatrix type="matrix" values="0 0 0 0 0 0 0 0 0 0 0 0 0 0 0 0 0 0 0.25 0"/>
<feBlend mode="normal" in2="BackgroundImageFix" result="effect1_dropShadow_694_1154"/>
<feBlend mode="normal" in="SourceGraphic" in2="effect1_dropShadow_694_1154" result="shape"/>
</filter>
<filter id="filter1_d_694_1154" x="30" y="5" width="10" height="15" filterUnits="userSpaceOnUse" color-interpolation-filters="sRGB">
<feFlood flood-opacity="0" result="BackgroundImageFix"/>
<feColorMatrix in="SourceAlpha" type="matrix" values="0 0 0 0 0 0 0 0 0 0 0 0 0 0 0 0 0 0 127 0" result="hardAlpha"/>
<feOffset dy="2"/>
<feGaussianBlur stdDeviation="2"/>
<feComposite in2="hardAlpha" operator="out"/>
<feColorMatrix type="matrix" values="0 0 0 0 0 0 0 0 0 0 0 0 0 0 0 0 0 0 0.25 0"/>
<feBlend mode="normal" in2="BackgroundImageFix" result="effect1_dropShadow_694_1154"/>
<feBlend mode="normal" in="SourceGraphic" in2="effect1_dropShadow_694_1154" result="shape"/>
</filter>
<filter id="filter2_d_694_1154" x="38" y="9" width="12.5" height="14.3301" filterUnits="userSpaceOnUse" color-interpolation-filters="sRGB">
<feFlood flood-opacity="0" result="BackgroundImageFix"/>
<feColorMatrix in="SourceAlpha" type="matrix" values="0 0 0 0 0 0 0 0 0 0 0 0 0 0 0 0 0 0 127 0" result="hardAlpha"/>
<feOffset dy="4"/>
<feGaussianBlur stdDeviation="2"/>
<feComposite in2="hardAlpha" operator="out"/>
<feColorMatrix type="matrix" values="0 0 0 0 0 0 0 0 0 0 0 0 0 0 0 0 0 0 0.25 0"/>
<feBlend mode="normal" in2="BackgroundImageFix" result="effect1_dropShadow_694_1154"/>
<feBlend mode="normal" in="SourceGraphic" in2="effect1_dropShadow_694_1154" result="shape"/>
</filter>
<filter id="filter3_d_694_1154" x="43.999" y="16" width="13.6572" height="13.4102" filterUnits="userSpaceOnUse" color-interpolation-filters="sRGB">
<feFlood flood-opacity="0" result="BackgroundImageFix"/>
<feColorMatrix in="SourceAlpha" type="matrix" values="0 0 0 0 0 0 0 0 0 0 0 0 0 0 0 0 0 0 127 0" result="hardAlpha"/>
<feOffset dy="4"/>
<feGaussianBlur stdDeviation="2"/>
<feComposite in2="hardAlpha" operator="out"/>
<feColorMatrix type="matrix" values="0 0 0 0 0 0 0 0 0 0 0 0 0 0 0 0 0 0 0.25 0"/>
<feBlend mode="normal" in2="BackgroundImageFix" result="effect1_dropShadow_694_1154"/>
<feBlend mode="normal" in="SourceGraphic" in2="effect1_dropShadow_694_1154" result="shape"/>
</filter>
<filter id="filter4_d_694_1154" x="13" y="16" width="13.6572" height="13.4102" filterUnits="userSpaceOnUse" color-interpolation-filters="sRGB">
<feFlood flood-opacity="0" result="BackgroundImageFix"/>
<feColorMatrix in="SourceAlpha" type="matrix" values="0 0 0 0 0 0 0 0 0 0 0 0 0 0 0 0 0 0 127 0" result="hardAlpha"/>
<feOffset dy="4"/>
<feGaussianBlur stdDeviation="2"/>
<feComposite in2="hardAlpha" operator="out"/>
<feColorMatrix type="matrix" values="0 0 0 0 0 0 0 0 0 0 0 0 0 0 0 0 0 0 0.25 0"/>
<feBlend mode="normal" in2="BackgroundImageFix" result="effect1_dropShadow_694_1154"/>
<feBlend mode="normal" in="SourceGraphic" in2="effect1_dropShadow_694_1154" result="shape"/>
</filter>
<filter id="filter5_d_694_1154" x="20" y="9" width="12.5" height="14.3301" filterUnits="userSpaceOnUse" color-interpolation-filters="sRGB">
<feFlood flood-opacity="0" result="BackgroundImageFix"/>
<feColorMatrix in="SourceAlpha" type="matrix" values="0 0 0 0 0 0 0 0 0 0 0 0 0 0 0 0 0 0 127 0" result="hardAlpha"/>
<feOffset dy="4"/>
<feGaussianBlur stdDeviation="2"/>
<feComposite in2="hardAlpha" operator="out"/>
<feColorMatrix type="matrix" values="0 0 0 0 0 0 0 0 0 0 0 0 0 0 0 0 0 0 0.25 0"/>
<feBlend mode="normal" in2="BackgroundImageFix" result="effect1_dropShadow_694_1154"/>
<feBlend mode="normal" in="SourceGraphic" in2="effect1_dropShadow_694_1154" result="shape"/>
</filter>
<linearGradient id="paint0_linear_694_1154" x1="35" y1="2" x2="35" y2="68" gradientUnits="userSpaceOnUse">
<stop stop-color="#5FD3FF"/>
<stop offset="1" stop-color="#1A64C3"/>
</linearGradient>
<linearGradient id="paint1_linear_694_1154" x1="31.9291" y1="22.5458" x2="39.7721" y2="48.8304" gradientUnits="userSpaceOnUse">
<stop stop-color="#FDF849"/>
<stop offset="1" stop-color="#F0BC01"/>
</linearGradient>
</defs>
</svg>
